<svg id="visual" viewBox="0 0 960 540" width="960" height="540" xmlns="http://www.w3.org/2000/svg" xmlns:xlink="http://www.w3.org/1999/xlink" version="1.1"><rect x="0" y="0" width="960" height="540" fill="#FFFFFF"></rect><defs><linearGradient id="grad1_0" x1="43.8%" y1="0%" x2="100%" y2="100%"><stop offset="14.444444444444446%" stop-color="#ffffff" stop-opacity="1"></stop><stop offset="85.55555555555554%" stop-color="#ffffff" stop-opacity="1"></stop></linearGradient></defs><defs><linearGradient id="grad2_0" x1="0%" y1="0%" x2="56.3%" y2="100%"><stop offset="14.444444444444446%" stop-color="#ffffff" stop-opacity="1"></stop><stop offset="85.55555555555554%" stop-color="#ffffff" stop-opacity="1"></stop></linearGradient></defs><g transform="translate(960, 0)"><path d="M0 486C-46.7 465.4 -93.4 444.8 -136.9 421.3C-180.4 397.8 -220.7 371.5 -244.5 336.6C-268.3 301.6 -275.5 258.2 -315.5 229.2C-355.5 200.3 -428.3 186 -462.2 150.2C-496.1 114.4 -491 57.2 -486 0L0 0Z" fill="#009473"></path></g><g transform="translate(0, 540)"><path d="M0 -486C40.5 -447.1 81.1 -408.1 127.3 -391.8C173.6 -375.6 225.5 -382 263.9 -363.2C302.3 -344.5 327.2 -300.6 361.6 -262.7C396 -224.9 439.9 -193 462.2 -150.2C484.5 -107.4 485.3 -53.7 486 0L0 0Z" fill="#009473"></path></g></svg>