<?xml version="1.0" encoding="utf-8"?><svg xmlns="http://www.w3.org/2000/svg" xmlns:xlink="http://www.w3.org/1999/xlink" width="1326" height="627" preserveAspectRatio="xMidYMid" viewBox="0 0 1326 627" style="z-index:1;margin-right:-2px;display:block;background-repeat-y:initial;background-repeat-x:initial;background-color:rgb(255, 255, 255);animation-play-state:paused" ><g transform="translate(663,313.5) scale(1,1) translate(-663,-313.5)" style="transform:matrix(1, 0, 0, 1, 0, 0);animation-play-state:paused" ><linearGradient id="lg-0.23030090128613567" x1="0" x2="1" y1="0" y2="0" style="animation-play-state:paused" ><stop stop-color="#ff00ff" offset="0" style="animation-play-state:paused" ></stop>

  
<stop stop-color="#00ffff" offset="1" style="animation-play-state:paused" ></stop></linearGradient>
<path d="M 0 0 L 0 602.16 Q 132.6 500.373 265.2 483.271 T 530.4 444.031 T 795.6 426.104 T 1060.8 304.977 T 1326 275.266 L 1326 0 Z" fill="url(#lg-0.23030090128613567)" opacity="0.4" style="opacity:0.4;animation-play-state:paused" ></path>
<path d="M 0 0 L 0 561.625 Q 132.6 522.499 265.2 493.683 T 530.4 462.248 T 795.6 393.649 T 1060.8 334.85 T 1326 307.508 L 1326 0 Z" fill="url(#lg-0.23030090128613567)" opacity="0.4" style="opacity:0.4;animation-play-state:paused" ></path>
<path d="M 0 0 L 0 553.333 Q 132.6 548.296 265.2 512.628 T 530.4 493.618 T 795.6 348.753 T 1060.8 292.794 T 1326 267.827 L 1326 0 Z" fill="url(#lg-0.23030090128613567)" opacity="0.4" style="opacity:0.4;animation-play-state:paused" ></path>
<path d="M 0 0 L 0 508.671 Q 132.6 489.365 265.2 465.622 T 530.4 406.722 T 795.6 352.814 T 1060.8 259.734 T 1326 225.966 L 1326 0 Z" fill="url(#lg-0.23030090128613567)" opacity="0.4" style="opacity:0.4;animation-play-state:paused" ></path>
<path d="M 0 0 L 0 527.911 Q 132.6 554.423 265.2 516.245 T 530.4 454.592 T 795.6 338.983 T 1060.8 360.045 T 1326 294.053 L 1326 0 Z" fill="url(#lg-0.23030090128613567)" opacity="0.4" style="opacity:0.4;animation-play-state:paused" ></path></g></svg>